<svg width="100%" height="100%" viewBox="0 0 384 384" fill="none" xmlns="http://www.w3.org/2000/svg">
  <!-- macOS squircle dark black background -->
  <rect width="384" height="384" rx="86" ry="86" fill="#09090B"/>
  <rect x="1" y="1" width="382" height="382" rx="85" ry="85" stroke="rgba(255, 255, 255, 0.12)" stroke-width="2"/>
  
  <g transform="translate(40, 40)">
    <!-- S shape -->
    <path d="M 24 0 L 120 0 A 24 24 0 0 1 144 24 L 144 56 A 24 24 0 0 1 120 80 L 104 80 A 24 24 0 0 0 80 104 L 80 136 A 24 24 0 0 0 104 160 L 120 160 A 24 24 0 0 1 144 184 L 144 280 A 24 24 0 0 1 120 304 L 24 304 A 24 24 0 0 1 0 280 L 0 248 A 24 24 0 0 1 24 224 L 40 224 A 24 24 0 0 0 64 200 L 64 168 A 24 24 0 0 0 40 144 L 24 144 A 24 24 0 0 1 0 120 L 0 24 A 24 24 0 0 1 24 0 Z" fill="#FFFFFF"/>
    
    <!-- Right grid -->
    <!-- Row 1 -->
    <rect x="160" y="0" width="64" height="64" rx="16" fill="#3F3F46"/>
    <rect x="240" y="0" width="64" height="64" rx="16" fill="#3F3F46"/>
    <!-- Row 2 -->
    <rect x="160" y="80" width="64" height="64" rx="16" fill="#3F3F46"/>
    <rect x="240" y="80" width="64" height="64" rx="16" fill="#3F3F46"/>
    <!-- Row 3 -->
    <rect x="160" y="160" width="64" height="64" rx="16" fill="#3F3F46"/>
    <!-- Pink Block -->
    <rect x="240" y="160" width="64" height="64" rx="16" fill="#FF1F5A"/>
    <!-- Row 4 -->
    <rect x="160" y="240" width="64" height="64" rx="16" fill="#3F3F46"/>
    <rect x="240" y="240" width="64" height="64" rx="16" fill="#3F3F46"/>
  </g>
</svg>
